<?xml version="1.0" encoding="UTF-8" standalone="no"?>
<!DOCTYPE svg PUBLIC "-//W3C//DTD SVG 1.1//EN"
 "http://www.w3.org/Graphics/SVG/1.1/DTD/svg11.dtd">
<!-- Generated by graphviz version 12.2.1 (20241206.2353)
 -->
<!-- Pages: 1 -->
<svg width="548pt" height="264pt"
 viewBox="0.00 0.00 788.54 379.75" xmlns="http://www.w3.org/2000/svg" xmlns:xlink="http://www.w3.org/1999/xlink">
<g id="graph0" class="graph" transform="scale(1 1) rotate(0) translate(4 375.75)">
<polygon fill="white" stroke="none" points="-4,4 -4,-375.75 784.54,-375.75 784.54,4 -4,4"/>
<text text-anchor="middle" x="390.27" y="-334.5" font-family="Times New Roman,serif" font-size="35.00">vakifbank_mobile</text>
<!-- :app -->
<g id="node1" class="node">
<title>:app</title>
<polygon fill="#66bb6a" stroke="black" points="461.71,-324 407.71,-324 407.71,-288 461.71,-288 461.71,-324"/>
<text text-anchor="middle" x="434.71" y="-300.95" font-family="Times New Roman,serif" font-size="14.00">:app</text>
</g>
<!-- :core:common -->
<g id="node2" class="node">
<title>:core:common</title>
<ellipse fill="#66bb6a" stroke="black" cx="532.71" cy="-18" rx="65.17" ry="18"/>
<text text-anchor="middle" x="532.71" y="-12.95" font-family="Times New Roman,serif" font-size="14.00">:core:common</text>
</g>
<!-- :app&#45;&gt;:core:common -->
<g id="edge1" class="edge">
<title>:app&#45;&gt;:core:common</title>
<path fill="none" stroke="black" stroke-dasharray="1,5" d="M462.02,-304.74C531.94,-303.45 714.58,-295.86 751.71,-252 786.87,-210.48 804.4,-165.16 713.71,-72 686.08,-43.62 644.14,-30.22 607.59,-23.99"/>
<polygon fill="black" stroke="black" points="608.35,-20.57 597.93,-22.51 607.29,-27.49 608.35,-20.57"/>
</g>
<!-- :core:navigation -->
<g id="node3" class="node">
<title>:core:navigation</title>
<ellipse fill="#66bb6a" stroke="black" cx="205.71" cy="-162" rx="70.8" ry="18"/>
<text text-anchor="middle" x="205.71" y="-156.95" font-family="Times New Roman,serif" font-size="14.00">:core:navigation</text>
</g>
<!-- :app&#45;&gt;:core:navigation -->
<g id="edge2" class="edge">
<title>:app&#45;&gt;:core:navigation</title>
<path fill="none" stroke="black" stroke-dasharray="1,5" d="M407.27,-303.43C320.82,-298.22 58.42,-280.19 33.71,-252 -1.57,-211.75 73.54,-187.14 135.39,-174.29"/>
<polygon fill="black" stroke="black" points="135.76,-177.78 144.88,-172.4 134.39,-170.92 135.76,-177.78"/>
</g>
<!-- :core:domain -->
<g id="node4" class="node">
<title>:core:domain</title>
<ellipse fill="#66bb6a" stroke="black" cx="438.71" cy="-90" rx="60.05" ry="18"/>
<text text-anchor="middle" x="438.71" y="-84.95" font-family="Times New Roman,serif" font-size="14.00">:core:domain</text>
</g>
<!-- :app&#45;&gt;:core:domain -->
<g id="edge5" class="edge">
<title>:app&#45;&gt;:core:domain</title>
<path fill="none" stroke="black" stroke-dasharray="1,5" d="M407.32,-303.56C319.05,-298.63 46.36,-281.13 20.71,-252 -80.96,-136.48 224.33,-103.35 368.16,-94.26"/>
<polygon fill="black" stroke="black" points="368.2,-97.77 377.97,-93.67 367.78,-90.78 368.2,-97.77"/>
</g>
<!-- :core:network -->
<g id="node5" class="node">
<title>:core:network</title>
<ellipse fill="#66bb6a" stroke="black" cx="622.71" cy="-90" rx="62.1" ry="18"/>
<text text-anchor="middle" x="622.71" y="-84.95" font-family="Times New Roman,serif" font-size="14.00">:core:network</text>
</g>
<!-- :app&#45;&gt;:core:network -->
<g id="edge3" class="edge">
<title>:app&#45;&gt;:core:network</title>
<path fill="none" stroke="black" stroke-dasharray="1,5" d="M461.76,-304.41C528.36,-302.34 697.33,-293.06 731.71,-252 770.48,-205.71 701.85,-145.5 656.99,-113.43"/>
<polygon fill="black" stroke="black" points="658.99,-110.56 648.79,-107.71 654.98,-116.3 658.99,-110.56"/>
</g>
<!-- :core:ui -->
<g id="node6" class="node">
<title>:core:ui</title>
<ellipse fill="#66bb6a" stroke="black" cx="371.71" cy="-162" rx="39.07" ry="18"/>
<text text-anchor="middle" x="371.71" y="-156.95" font-family="Times New Roman,serif" font-size="14.00">:core:ui</text>
</g>
<!-- :app&#45;&gt;:core:ui -->
<g id="edge4" class="edge">
<title>:app&#45;&gt;:core:ui</title>
<path fill="none" stroke="black" stroke-dasharray="1,5" d="M433.5,-287.81C431.64,-269.28 427.02,-239.31 415.71,-216 410.68,-205.62 403.19,-195.53 395.81,-187"/>
<polygon fill="black" stroke="black" points="398.61,-184.87 389.29,-179.83 393.43,-189.58 398.61,-184.87"/>
</g>
<!-- :feature:splash -->
<g id="node7" class="node">
<title>:feature:splash</title>
<ellipse fill="#66bb6a" stroke="black" cx="107.71" cy="-234" rx="64.66" ry="18"/>
<text text-anchor="middle" x="107.71" y="-228.95" font-family="Times New Roman,serif" font-size="14.00">:feature:splash</text>
</g>
<!-- :app&#45;&gt;:feature:splash -->
<g id="edge6" class="edge">
<title>:app&#45;&gt;:feature:splash</title>
<path fill="none" stroke="black" stroke-dasharray="1,5" d="M407.35,-299.45C360.9,-289.98 263.68,-270 181.71,-252 177.08,-250.98 172.28,-249.91 167.46,-248.83"/>
<polygon fill="black" stroke="black" points="168.25,-245.42 157.72,-246.62 166.7,-252.25 168.25,-245.42"/>
</g>
<!-- :feature:login -->
<g id="node8" class="node">
<title>:feature:login</title>
<ellipse fill="#66bb6a" stroke="black" cx="523.71" cy="-234" rx="60.56" ry="18"/>
<text text-anchor="middle" x="523.71" y="-228.95" font-family="Times New Roman,serif" font-size="14.00">:feature:login</text>
</g>
<!-- :app&#45;&gt;:feature:login -->
<g id="edge7" class="edge">
<title>:app&#45;&gt;:feature:login</title>
<path fill="none" stroke="black" stroke-dasharray="1,5" d="M456.71,-287.7C467.95,-278.86 481.79,-267.97 493.97,-258.4"/>
<polygon fill="black" stroke="black" points="496,-261.25 501.69,-252.32 491.67,-255.75 496,-261.25"/>
</g>
<!-- :feature:story -->
<g id="node10" class="node">
<title>:feature:story</title>
<ellipse fill="#66bb6a" stroke="black" cx="662.71" cy="-234" rx="60.05" ry="18"/>
<text text-anchor="middle" x="662.71" y="-228.95" font-family="Times New Roman,serif" font-size="14.00">:feature:story</text>
</g>
<!-- :app&#45;&gt;:feature:story -->
<g id="edge8" class="edge">
<title>:app&#45;&gt;:feature:story</title>
<path fill="none" stroke="black" stroke-dasharray="1,5" d="M461.76,-296.7C498.46,-285.43 564.74,-265.08 611.11,-250.84"/>
<polygon fill="black" stroke="black" points="611.87,-254.27 620.41,-247.99 609.82,-247.58 611.87,-254.27"/>
</g>
<!-- :feature:marketknowledge -->
<g id="node11" class="node">
<title>:feature:marketknowledge</title>
<ellipse fill="#66bb6a" stroke="black" cx="298.71" cy="-234" rx="108.16" ry="18"/>
<text text-anchor="middle" x="298.71" y="-228.95" font-family="Times New Roman,serif" font-size="14.00">:feature:marketknowledge</text>
</g>
<!-- :app&#45;&gt;:feature:marketknowledge -->
<g id="edge9" class="edge">
<title>:app&#45;&gt;:feature:marketknowledge</title>
<path fill="none" stroke="black" stroke-dasharray="1,5" d="M407.52,-291C388.38,-281.15 362.4,-267.78 340.62,-256.57"/>
<polygon fill="black" stroke="black" points="342.48,-253.59 331.98,-252.12 339.27,-259.81 342.48,-253.59"/>
</g>
<!-- :core:navigation&#45;&gt;:core:domain -->
<g id="edge10" class="edge">
<title>:core:navigation&#45;&gt;:core:domain</title>
<path fill="none" stroke="black" stroke-dasharray="1,5" d="M250.36,-147.59C289.22,-135.91 345.56,-118.98 386.5,-106.69"/>
<polygon fill="black" stroke="black" points="387.32,-110.09 395.89,-103.86 385.31,-103.39 387.32,-110.09"/>
</g>
<!-- :core:domain&#45;&gt;:core:common -->
<g id="edge11" class="edge">
<title>:core:domain&#45;&gt;:core:common</title>
<path fill="none" stroke="black" d="M460.51,-72.76C472.76,-63.64 488.26,-52.1 501.75,-42.06"/>
<polygon fill="black" stroke="black" points="503.56,-45.07 509.49,-36.29 499.38,-39.46 503.56,-45.07"/>
</g>
<!-- :feature:splash&#45;&gt;:core:common -->
<g id="edge13" class="edge">
<title>:feature:splash&#45;&gt;:core:common</title>
<path fill="none" stroke="black" stroke-dasharray="1,5" d="M106.33,-215.64C105.73,-195.82 107.93,-163.63 125.71,-144 210.64,-50.27 363.87,-26 456.15,-20.2"/>
<polygon fill="black" stroke="black" points="456.07,-23.71 465.86,-19.65 455.68,-16.72 456.07,-23.71"/>
</g>
<!-- :feature:splash&#45;&gt;:core:navigation -->
<g id="edge14" class="edge">
<title>:feature:splash&#45;&gt;:core:navigation</title>
<path fill="none" stroke="black" stroke-dasharray="1,5" d="M130.44,-216.76C143.21,-207.64 159.37,-196.1 173.43,-186.06"/>
<polygon fill="black" stroke="black" points="175.43,-188.93 181.54,-180.27 171.36,-183.23 175.43,-188.93"/>
</g>
<!-- :feature:splash&#45;&gt;:core:ui -->
<g id="edge12" class="edge">
<title>:feature:splash&#45;&gt;:core:ui</title>
<path fill="none" stroke="black" stroke-dasharray="1,5" d="M153.4,-220.89C202.17,-207.95 278.95,-187.6 327.25,-174.79"/>
<polygon fill="black" stroke="black" points="328.06,-178.2 336.82,-172.25 326.26,-171.43 328.06,-178.2"/>
</g>
<!-- :feature:login&#45;&gt;:core:common -->
<g id="edge17" class="edge">
<title>:feature:login&#45;&gt;:core:common</title>
<path fill="none" stroke="black" stroke-dasharray="1,5" d="M543.57,-216.55C553.47,-207.03 564.43,-194.15 569.71,-180 575.31,-165.01 573.39,-159.57 569.71,-144 565.6,-126.59 557.63,-124.88 551.71,-108 544.84,-88.37 540.01,-65.4 536.94,-47.71"/>
<polygon fill="black" stroke="black" points="540.41,-47.21 535.34,-37.91 533.5,-48.34 540.41,-47.21"/>
</g>
<!-- :feature:login&#45;&gt;:core:navigation -->
<g id="edge16" class="edge">
<title>:feature:login&#45;&gt;:core:navigation</title>
<path fill="none" stroke="black" stroke-dasharray="1,5" d="M476.1,-222.52C420.97,-210.38 329.93,-190.34 268.91,-176.91"/>
<polygon fill="black" stroke="black" points="269.88,-173.54 259.36,-174.81 268.37,-180.38 269.88,-173.54"/>
</g>
<!-- :feature:login&#45;&gt;:core:domain -->
<g id="edge18" class="edge">
<title>:feature:login&#45;&gt;:core:domain</title>
<path fill="none" stroke="black" stroke-dasharray="1,5" d="M496.79,-217.63C483.06,-208.43 467.27,-195.51 457.71,-180 446.55,-161.88 441.87,-138.19 439.95,-119.8"/>
<polygon fill="black" stroke="black" points="443.44,-119.53 439.15,-109.84 436.46,-120.09 443.44,-119.53"/>
</g>
<!-- :feature:login&#45;&gt;:core:ui -->
<g id="edge15" class="edge">
<title>:feature:login&#45;&gt;:core:ui</title>
<path fill="none" stroke="black" stroke-dasharray="1,5" d="M491.85,-218.33C467.63,-207.17 434.25,-191.8 408.82,-180.09"/>
<polygon fill="black" stroke="black" points="410.38,-176.96 399.84,-175.95 407.46,-183.31 410.38,-176.96"/>
</g>
<!-- :core:data -->
<g id="node9" class="node">
<title>:core:data</title>
<ellipse fill="#66bb6a" stroke="black" cx="513.71" cy="-162" rx="47.26" ry="18"/>
<text text-anchor="middle" x="513.71" y="-156.95" font-family="Times New Roman,serif" font-size="14.00">:core:data</text>
</g>
<!-- :feature:login&#45;&gt;:core:data -->
<g id="edge19" class="edge">
<title>:feature:login&#45;&gt;:core:data</title>
<path fill="none" stroke="black" stroke-dasharray="1,5" d="M521.24,-215.7C520.19,-208.32 518.93,-199.52 517.75,-191.25"/>
<polygon fill="black" stroke="black" points="521.25,-191.01 516.37,-181.6 514.32,-192 521.25,-191.01"/>
</g>
<!-- :core:data&#45;&gt;:core:domain -->
<g id="edge21" class="edge">
<title>:core:data&#45;&gt;:core:domain</title>
<path fill="none" stroke="black" stroke-dasharray="1,5" d="M496.69,-145.12C487.21,-136.27 475.21,-125.07 464.59,-115.16"/>
<polygon fill="black" stroke="black" points="467.25,-112.85 457.55,-108.58 462.48,-117.97 467.25,-112.85"/>
</g>
<!-- :core:data&#45;&gt;:core:network -->
<g id="edge20" class="edge">
<title>:core:data&#45;&gt;:core:network</title>
<path fill="none" stroke="black" stroke-dasharray="1,5" d="M537.1,-145.98C552.05,-136.38 571.71,-123.76 588.41,-113.03"/>
<polygon fill="black" stroke="black" points="590.06,-116.13 596.58,-107.78 586.27,-110.24 590.06,-116.13"/>
</g>
<!-- :feature:story&#45;&gt;:core:common -->
<g id="edge22" class="edge">
<title>:feature:story&#45;&gt;:core:common</title>
<path fill="none" stroke="black" stroke-dasharray="1,5" d="M673.71,-215.9C692.47,-184.34 725.67,-116.16 693.71,-72 673.88,-44.6 639.4,-31.12 607.42,-24.58"/>
<polygon fill="black" stroke="black" points="608.2,-21.16 597.73,-22.82 606.95,-28.05 608.2,-21.16"/>
</g>
<!-- :feature:story&#45;&gt;:core:navigation -->
<g id="edge26" class="edge">
<title>:feature:story&#45;&gt;:core:navigation</title>
<path fill="none" stroke="black" stroke-dasharray="1,5" d="M618.7,-221.4C610.43,-219.43 601.83,-217.54 593.71,-216 474.76,-193.49 443.63,-196.63 323.71,-180 308.62,-177.91 292.44,-175.61 277.06,-173.4"/>
<polygon fill="black" stroke="black" points="277.92,-169.99 267.53,-172.03 276.93,-176.92 277.92,-169.99"/>
</g>
<!-- :feature:story&#45;&gt;:core:domain -->
<g id="edge25" class="edge">
<title>:feature:story&#45;&gt;:core:domain</title>
<path fill="none" stroke="black" stroke-dasharray="1,5" d="M648.78,-216.25C631.8,-196.72 601.43,-164.51 569.71,-144 545.57,-128.39 516.09,-115.97 491.21,-107.09"/>
<polygon fill="black" stroke="black" points="492.53,-103.84 481.93,-103.87 490.24,-110.45 492.53,-103.84"/>
</g>
<!-- :feature:story&#45;&gt;:core:ui -->
<g id="edge24" class="edge">
<title>:feature:story&#45;&gt;:core:ui</title>
<path fill="none" stroke="black" stroke-dasharray="1,5" d="M617.44,-221.8C609.54,-219.85 601.39,-217.86 593.71,-216 532.61,-201.18 461.95,-184.37 417.07,-173.73"/>
<polygon fill="black" stroke="black" points="417.97,-170.34 407.43,-171.44 416.36,-177.16 417.97,-170.34"/>
</g>
<!-- :feature:story&#45;&gt;:core:data -->
<g id="edge23" class="edge">
<title>:feature:story&#45;&gt;:core:data</title>
<path fill="none" stroke="black" stroke-dasharray="1,5" d="M631.48,-218.33C608.58,-207.57 577.34,-192.89 552.79,-181.36"/>
<polygon fill="black" stroke="black" points="554.29,-178.2 543.75,-177.11 551.32,-184.53 554.29,-178.2"/>
</g>
<!-- :feature:marketknowledge&#45;&gt;:core:navigation -->
<g id="edge30" class="edge">
<title>:feature:marketknowledge&#45;&gt;:core:navigation</title>
<path fill="none" stroke="black" stroke-dasharray="1,5" d="M276.2,-216.05C264.35,-207.13 249.63,-196.06 236.72,-186.34"/>
<polygon fill="black" stroke="black" points="239,-183.68 228.91,-180.46 234.79,-189.27 239,-183.68"/>
</g>
<!-- :feature:marketknowledge&#45;&gt;:core:domain -->
<g id="edge28" class="edge">
<title>:feature:marketknowledge&#45;&gt;:core:domain</title>
<path fill="none" stroke="black" stroke-dasharray="1,5" d="M299.37,-215.6C300.98,-196.05 306.32,-164.39 323.71,-144 338.9,-126.2 361.34,-114.04 382.38,-105.9"/>
<polygon fill="black" stroke="black" points="383.55,-109.2 391.78,-102.52 381.18,-102.61 383.55,-109.2"/>
</g>
<!-- :feature:marketknowledge&#45;&gt;:core:ui -->
<g id="edge27" class="edge">
<title>:feature:marketknowledge&#45;&gt;:core:ui</title>
<path fill="none" stroke="black" stroke-dasharray="1,5" d="M316.38,-216.05C325.75,-207.08 337.38,-195.92 347.57,-186.15"/>
<polygon fill="black" stroke="black" points="349.81,-188.85 354.61,-179.4 344.97,-183.8 349.81,-188.85"/>
</g>
<!-- :feature:marketknowledge&#45;&gt;:core:data -->
<g id="edge29" class="edge">
<title>:feature:marketknowledge&#45;&gt;:core:data</title>
<path fill="none" stroke="black" stroke-dasharray="1,5" d="M346.43,-217.46C382.64,-205.67 432.13,-189.56 467.87,-177.93"/>
<polygon fill="black" stroke="black" points="468.63,-181.36 477.05,-174.94 466.46,-174.7 468.63,-181.36"/>
</g>
</g>
</svg>
